<?xml version="1.0" encoding="UTF-8"?> <svg xmlns="http://www.w3.org/2000/svg" xmlns:xlink="http://www.w3.org/1999/xlink" width="199.898" height="57.787" viewBox="0 0 199.898 57.787"><defs><linearGradient id="linear-gradient" y1="0.5" x2="1" y2="0.5" gradientUnits="objectBoundingBox"><stop offset="0" stop-color="#2595d3"></stop><stop offset="0.249" stop-color="#2595d3"></stop><stop offset="0.436" stop-color="#2182c3"></stop><stop offset="1" stop-color="#184c98"></stop></linearGradient></defs><g id="Group_3417" data-name="Group 3417" transform="translate(11109 17946)"><g id="Group_3416" data-name="Group 3416" transform="translate(-11109 -17946)"><g id="Group_3390" data-name="Group 3390" transform="translate(0 25.106)"><path id="Path_4138" data-name="Path 4138" d="M280.176,210.288a29.693,29.693,0,0,0-9.366,1.452l1.187,6.07a18.947,18.947,0,0,1,6.42-1.187c2.9,0,4.091,1.011,4.091,2.551a6.3,6.3,0,0,1-.219,1.452l-.088.307a20.555,20.555,0,0,0-6.027-.925c-6.289,0-10.465,3.169-10.465,8.4,0,3.96,2.724,6.466,6.639,6.466a9.61,9.61,0,0,0,6.861-3.035l-.657,2.551h8.225l3.519-13.107a13.706,13.706,0,0,0,.481-3.431C290.775,213.1,287.3,210.288,280.176,210.288Zm.926,15.132c-.66,2.417-2.727,4.31-4.883,4.31a2.152,2.152,0,0,1-2.374-2.2c0-2.155,1.714-3.431,4.353-3.431a9.881,9.881,0,0,1,3.123.527ZM269.619,210.6H259.55l-7.914,7.345-.049.046,4.222-15.7h-6.593L247,204.326l-.039.039-.082.075-1.661,6.184-6.38,23.765h8.356l1.54-5.674.049-.042,3.074-2.728,2.551,8.444h8.928l-4.66-14.03Zm-30.653,9.324c0-5.144-3.081-9.85-10.118-9.85a14.282,14.282,0,0,0-14.294,14.337c0,6.423,4.31,10.557,11.348,10.557a14.32,14.32,0,0,0,9.719-3.561l-3.869-4.575a8.261,8.261,0,0,1-5.059,1.89c-2.858,0-4.265-1.537-4.441-3.915h15.789A14.321,14.321,0,0,0,238.967,219.919Zm-7.656.618h-8.486c1.011-2.858,3.211-4.31,5.452-4.31a2.948,2.948,0,0,1,3.257,3.035A4.035,4.035,0,0,1,231.311,220.537Zm-23.223-18.255-3.077,11.567a7.977,7.977,0,0,0-7.214-3.78c-6.815,0-12.8,6.554-12.8,15.086,0,6.158,3.738,9.765,8.444,9.765a9.865,9.865,0,0,0,6.773-3.035l-.7,2.505h8.356l8.578-32.108Zm-10.6,25.731a3.868,3.868,0,0,1-4.045-4.179c0-3.78,2.682-6.815,5.8-6.815a3.97,3.97,0,0,1,4.134,4.222C203.382,224.847,200.7,228.013,197.489,228.013ZM176.422,210.6l-3.385,12.581c-.706,2.724-2.07,4.31-4.4,4.31-1.759,0-2.685-.925-2.685-2.508a8.17,8.17,0,0,1,.308-1.936l3.345-12.447h-8.359l-3.473,12.931a17.435,17.435,0,0,0-.661,4.268c0,4.353,2.593,7.126,6.907,7.126a9.515,9.515,0,0,0,6.773-3.257l-.706,2.728h8.359l6.331-23.795Zm-33.472-.526a14.041,14.041,0,0,0-13.984,13.811c0,6.289,4.4,11.083,11.655,11.083a14.061,14.061,0,0,0,14.029-13.853C154.651,214.863,150.253,210.069,142.95,210.069Zm-1.844,17.944c-2.466,0-4.137-1.713-4.137-4.441,0-3.08,2.243-6.554,5.543-6.554,2.462,0,4.133,1.714,4.133,4.4C146.646,224.54,144.4,228.013,141.106,228.013Zm-18.824-25.731-8.62,32.108h8.356l8.62-32.108Zm-19.707,25.777a3.647,3.647,0,0,1-3.65-3.96c0-3.607,2.551-7.08,5.72-7.08,2.155,0,3.3,1.141,4.088,2.989l6.554-3.385c-1.275-3.653-4.572-6.511-10.115-6.511A14.324,14.324,0,0,0,90.877,224.54c0,6.42,4.706,10.423,11.129,10.423a12.41,12.41,0,0,0,10.157-4.664l-5.1-4.441A6.04,6.04,0,0,1,102.575,228.059Z" transform="translate(-90.877 -202.282)" fill="url(#linear-gradient)"></path><g id="Group_3389" data-name="Group 3389" transform="translate(147.956 0.046)"><path id="Path_4139" data-name="Path 4139" d="M700.675,202.467l-2.22,2.044-.039.039-.082.075-.376.347-5.89,5.272-.039.039-.608.54h.5l4.752-.013-6.38,23.765h8.421l1.524-5.716,2.858-10.733,4.173-15.658Z" transform="translate(-690.292 -202.467)" fill="#e83830"></path></g></g><g id="Group_3415" data-name="Group 3415" transform="translate(0 0)"><g id="Group_3414" data-name="Group 3414" transform="translate(0)"><g id="Group_3413" data-name="Group 3413"><g id="Group_3392" data-name="Group 3392"><g id="Group_3391" data-name="Group 3391"><path id="Path_4140" data-name="Path 4140" d="M93.863,117.161a.461.461,0,0,1-.482-.3,2.959,2.959,0,0,1-.059-.773V100.568l-2.445.444.05.148a13.729,13.729,0,0,1,.181,3.342l0,12.009c0,1.605.737,2.4,2.163,2.4a3.353,3.353,0,0,0,1.281-.267l.112-.043-.465-1.438Z" transform="translate(-90.877 -100.568)" fill="#526271"></path></g></g><g id="Group_3394" data-name="Group 3394" transform="translate(6.824 5.329)"><g id="Group_3393" data-name="Group 3393"><path id="Path_4141" data-name="Path 4141" d="M118.522,134.9h2.314l0-12.748-2.316.358Z" transform="translate(-118.522 -122.156)" fill="#526271"></path></g></g><g id="Group_3396" data-name="Group 3396" transform="translate(6.354 0.363)"><g id="Group_3395" data-name="Group 3395"><path id="Path_4142" data-name="Path 4142" d="M118.255,102.038a1.6,1.6,0,0,0-1.167.482,1.673,1.673,0,0,0-.47,1.178,1.546,1.546,0,0,0,.482,1.138,1.656,1.656,0,0,0,1.155.465,1.619,1.619,0,0,0,1.164-.465,1.589,1.589,0,0,0,.475-1.159,1.55,1.55,0,0,0-.475-1.162A1.616,1.616,0,0,0,118.255,102.038Z" transform="translate(-116.619 -102.038)" fill="#526271"></path></g></g><g id="Group_3398" data-name="Group 3398" transform="translate(12.801 5.293)"><g id="Group_3397" data-name="Group 3397"><path id="Path_4143" data-name="Path 4143" d="M150.925,122.537a3.739,3.739,0,0,0-1.848-.491,5.48,5.48,0,0,0-3.719,1.713,4.511,4.511,0,0,0-.431-1.632l-.05-.117-2.14.6.062.15a6.767,6.767,0,0,1,.453,2.821v9.214h2.113V125.6a5.746,5.746,0,0,1,1.483-1.09,3.826,3.826,0,0,1,1.786-.539,1.381,1.381,0,0,1,1.355.665,3.9,3.9,0,0,1,.289,1.741l0,8.415h2.192V125.4a3.716,3.716,0,0,0-.289-1.493A2.927,2.927,0,0,0,150.925,122.537Z" transform="translate(-142.737 -122.01)" fill="#526271"></path></g></g><g id="Group_3400" data-name="Group 3400" transform="translate(25.971 2.109)"><g id="Group_3399" data-name="Group 3399"><path id="Path_4144" data-name="Path 4144" d="M200.751,114.375l.706-1.77H198.3v-3.494l-2.206.5v.425l0,2.557v9.981a2.558,2.558,0,0,0,2.9,2.886,4.715,4.715,0,0,0,2.216-.491l.088-.053-.327-1.493-.165.072a2.569,2.569,0,0,1-1.166.239,1.455,1.455,0,0,1-1.176-.41,2.329,2.329,0,0,1-.267-1.271v-7.673Z" transform="translate(-196.095 -109.111)" fill="#526271"></path></g></g><g id="Group_3402" data-name="Group 3402" transform="translate(32.661 5.298)"><g id="Group_3401" data-name="Group 3401"><path id="Path_4145" data-name="Path 4145" d="M232.68,132.715a4.866,4.866,0,0,1-.115-1.376c0-.238,0-.434.012-.548l.1-4.012v-.611a5.909,5.909,0,0,0-.279-2.137c-.542-1.328-1.729-2-3.5-2a9.267,9.267,0,0,0-5.185,1.672l-.121.074,1.133,1.605.1-.079a5.944,5.944,0,0,1,3.792-1.419,1.914,1.914,0,0,1,1.545.615c.165.184.346.629.346,1.806v.72h-.716a9.576,9.576,0,0,0-4.36.885,3.846,3.846,0,0,0-2.235,3.614,3.309,3.309,0,0,0,1.176,2.716,4.4,4.4,0,0,0,2.886.882,4.943,4.943,0,0,0,3.444-1.51,2.442,2.442,0,0,0,1.7,1.646l.078.031,1.152-1.574-.15-.077A1.44,1.44,0,0,1,232.68,132.715Zm-5.1.713c-1.331,0-1.975-.67-1.975-2.089,0-1.863,1.343-2.752,4.088-2.752.069,0,.339.007.818.033l-.119,3.01A2.907,2.907,0,0,1,227.578,133.428Z" transform="translate(-223.199 -122.03)" fill="#526271"></path></g></g><g id="Group_3404" data-name="Group 3404" transform="translate(45.081 5.128)"><g id="Group_3403" data-name="Group 3403" transform="translate(0)"><path id="Path_4146" data-name="Path 4146" d="M279.55,126.975l-1.61-.339c-1.111-.234-1.655-.765-1.655-1.622a1.718,1.718,0,0,1,.634-1.412,2.42,2.42,0,0,1,1.522-.456,7.434,7.434,0,0,1,3,.868l.112.048.837-1.643-.1-.074a7.627,7.627,0,0,0-3.79-1,4.813,4.813,0,0,0-3.1,1,3.506,3.506,0,0,0-1.383,2.888c0,1.827,1.078,3,3.194,3.451l1.507.37c1.274.27,1.9.894,1.9,1.856a1.685,1.685,0,0,1-.627,1.447,2.794,2.794,0,0,1-1.7.513,7.17,7.17,0,0,1-3.776-1.133l-.138-.081-.859,1.672.119.062a8.485,8.485,0,0,0,4.546,1.252,5.1,5.1,0,0,0,3.284-1.035,3.739,3.739,0,0,0,1.445-3.084C282.908,128.645,281.78,127.445,279.55,126.975Z" transform="translate(-273.513 -121.344)" fill="#526271"></path></g></g><g id="Group_3406" data-name="Group 3406" transform="translate(56.663 5.3)"><g id="Group_3405" data-name="Group 3405" transform="translate(0)"><path id="Path_4147" data-name="Path 4147" d="M329.906,132.723a5.243,5.243,0,0,1-.112-1.374c0-.236,0-.434.009-.548l.1-4.012v-.608a5.9,5.9,0,0,0-.272-2.139c-.551-1.331-1.722-2-3.513-2a9.241,9.241,0,0,0-5.178,1.67l-.127.076,1.128,1.61.112-.083a5.926,5.926,0,0,1,3.8-1.417,1.9,1.9,0,0,1,1.541.611c.162.184.346.634.346,1.806v.72h-.716a9.61,9.61,0,0,0-4.367.887,3.851,3.851,0,0,0-2.223,3.613,3.316,3.316,0,0,0,1.171,2.717,4.4,4.4,0,0,0,2.886.88,4.952,4.952,0,0,0,3.444-1.507,2.407,2.407,0,0,0,1.7,1.646l.093.034,1.128-1.574-.146-.079A1.425,1.425,0,0,1,329.906,132.723Zm-5.1.716c-1.329,0-1.965-.673-1.965-2.089,0-1.863,1.343-2.755,4.081-2.755.076,0,.331.007.82.036l-.129,3.012A2.9,2.9,0,0,1,324.8,133.438Z" transform="translate(-320.435 -122.04)" fill="#526271"></path></g></g><g id="Group_3408" data-name="Group 3408" transform="translate(69.16 5.276)"><g id="Group_3407" data-name="Group 3407"><path id="Path_4148" data-name="Path 4148" d="M377,121.967a4.17,4.17,0,0,0-3.267,1.722,4.471,4.471,0,0,0-.429-1.631l-.04-.115-2.2.587.062.155a6.869,6.869,0,0,1,.427,2.631l0,9.431,2.183,0v-7.733a2.778,2.778,0,0,1,.215-1.245,2.511,2.511,0,0,1,1-1,2.582,2.582,0,0,1,1.4-.417,3.5,3.5,0,0,1,.513.057l.105.012.878-2.271-.143-.055A2.12,2.12,0,0,0,377,121.967Z" transform="translate(-371.068 -121.943)" fill="#526271"></path></g></g><g id="Group_3410" data-name="Group 3410" transform="translate(83.454 5.302)"><g id="Group_3409" data-name="Group 3409"><path id="Path_4149" data-name="Path 4149" d="M439.254,133.662a1.6,1.6,0,0,1-.825-.93,6.774,6.774,0,0,1-.1-1.369,4.072,4.072,0,0,1,.024-.556l.1-4.012v-.606a5.854,5.854,0,0,0-.279-2.14c-.534-1.331-1.724-2-3.494-2a9.216,9.216,0,0,0-5.19,1.67l-.129.074,1.116,1.61.127-.081a5.926,5.926,0,0,1,3.8-1.417,1.888,1.888,0,0,1,1.531.613c.172.181.353.632.353,1.8v.72h-.709a9.669,9.669,0,0,0-4.372.885,3.855,3.855,0,0,0-2.221,3.613,3.32,3.32,0,0,0,1.162,2.719,4.4,4.4,0,0,0,2.9.88,4.94,4.94,0,0,0,3.432-1.5,2.436,2.436,0,0,0,1.691,1.646l.1.034,1.14-1.577Zm-5.913-.212c-1.324,0-1.958-.675-1.958-2.092,0-1.865,1.324-2.752,4.078-2.752.076,0,.334,0,.806.031l-.1,3.015A2.939,2.939,0,0,1,433.342,133.45Z" transform="translate(-428.977 -122.049)" fill="#526271"></path></g></g><g id="Group_3412" data-name="Group 3412" transform="translate(76.752 2.111)"><g id="Group_3411" data-name="Group 3411"><path id="Path_4150" data-name="Path 4150" d="M406.485,114.386l.694-1.772-3.151,0V109.12l-2.2.5v12.963a2.561,2.561,0,0,0,2.9,2.886,4.652,4.652,0,0,0,2.209-.494l.117-.05-.343-1.5-.158.072a2.7,2.7,0,0,1-1.178.238,1.5,1.5,0,0,1-1.181-.408,2.451,2.451,0,0,1-.236-1.276v-7.671Z" transform="translate(-401.825 -109.12)" fill="#526271"></path></g></g></g></g></g></g></g></svg> 